# File created by Blade
# Date/Time:  Thu Jan 22 16:25:57 2015
#---------------------------------------------------------
:version 1.10
:name HOM
:units
  mass 1.0
  length 1.000000
  angle deg
:documentation
     Acclaim Skeleton File
:root
   axis xyz
   order TX TY TZ RX RY RZ
   position 0.000000 0.000000 0.000000
   orientation 0 0 0
:bonedata
   begin
      id 1
      name RightUpLeg_dum
      direction -1.000000 0.000000 0.000000
      length 3.766986
      axis 0.0 0.0 0.0 xyz
   end
   begin
      id 2
      name LeftUpLeg_dum
      direction 1.000000 0.000000 0.000000
      length 3.766986
      axis 0.0 0.0 0.0 xyz
   end
   begin
      id 3
      name Spine_dum
      direction 0.000000 1.000000 0.000000
      length 7.779697
      axis 0.0 0.0 0.0 xyz
   end
   begin
      id 4
      name RightUpLeg
      direction 0.000000 -1.000000 0.000000
      length 18.017682
      axis 0.0 0.0 0.0 xyz
      dof rx ry rz
   end
   begin
      id 5
      name RightLeg
      direction 0.000000 -1.000000 0.000000
      length 16.881075
      axis 0.0 0.0 0.0 xyz
      dof rx ry rz
   end
   begin
      id 6
      name RightFoot
      direction 0.000000 -0.258819 0.965926
      length 5.770812
      axis 15.0 0.0 0.0 xyz
      dof rx ry rz
   end
   begin
      id 7
      name RightToeBase
      direction 0.000000 0.000000 1.000000
      length 2.952750
      axis 0.0 0.0 0.0 xyz
      dof rx ry rz
   end
   begin
      id 8
      name LeftUpLeg
      direction 0.000000 -1.000000 0.000000
      length 18.017682
      axis 0.0 0.0 0.0 xyz
      dof rx ry rz
   end
   begin
      id 9
      name LeftLeg
      direction 0.000000 -1.000000 0.000000
      length 16.881075
      axis 0.0 0.0 0.0 xyz
      dof rx ry rz
   end
   begin
      id 10
      name LeftFoot
      direction 0.000000 -0.258819 0.965926
      length 5.770812
      axis 15.0 0.0 0.0 xyz
      dof rx ry rz
   end
   begin
      id 11
      name LeftToeBase
      direction 0.000000 0.000000 1.000000
      length 2.952750
      axis 0.0 0.0 0.0 xyz
      dof rx ry rz
   end
   begin
      id 12
      name Spine
      direction 0.000000 1.000000 0.000000
      length 0.000000
      axis 0.0 0.0 0.0 xyz
      dof rx ry rz
   end
   begin
      id 13
      name Spine_dum1
      direction 0.000000 1.000000 0.000000
      length 10.941760
      axis 0.0 0.0 0.0 xyz
   end
   begin
      id 14
      name Spine_dum2
      direction 0.000000 1.000000 0.000000
      length 10.941760
      axis 0.0 0.0 0.0 xyz
   end
   begin
      id 15
      name Spine_dum3
      direction 0.000000 1.000000 0.000000
      length 16.646042
      axis 0.0 0.0 0.0 xyz
   end
   begin
      id 16
      name RightShoulder
      direction -1.000000 0.000000 0.000000
      length 7.708937
      axis 0.0 0.0 90.0 xyz
      dof rx ry rz
   end
   begin
      id 17
      name RightArm
      direction -1.000000 0.000000 0.000000
      length 11.521345
      axis 0.0 0.0 90.0 xyz
      dof rx ry rz
   end
   begin
      id 18
      name RightForeArm
      direction -1.000000 0.000000 0.000000
      length 10.175898
      axis 0.0 0.0 90.0 xyz
      dof ry rz rx
   end
   begin
      id 19
      name RightHand
      direction -1.000000 0.000000 0.000000
      length 0.000000
      axis 0.0 0.0 90.0 xyz
      dof rx ry rz
   end
   begin
      id 20
      name RightHand_dum1
      direction -1.000000 0.000000 0.000000
      length 3.937000
      axis 0.0 0.0 90.0 xyz
   end
   begin
      id 21
      name RightHand_dum2
      direction 0.000000 0.000000 0.000000
      length 0.000000
      axis 0.0 0.0 90.0 xyz
   end
   begin
      id 22
      name RightHandThumb1
      direction 0.000000 0.000000 1.000000
      length 3.937000
      axis 0.0 0.0 90.0 xyz
      dof rx rz ry
   end
   begin
      id 23
      name LeftShoulder
      direction 1.000000 0.000000 0.000000
      length 7.708937
      axis 0.0 0.0 -90.0 xyz
      dof rx ry rz
   end
   begin
      id 24
      name LeftArm
      direction 1.000000 0.000000 0.000000
      length 11.521345
      axis 0.0 0.0 -90.0 xyz
      dof rx ry rz
   end
   begin
      id 25
      name LeftForeArm
      direction 1.000000 0.000000 0.000000
      length 10.175898
      axis 0.0 0.0 -90.0 xyz
      dof ry rz rx
   end
   begin
      id 26
      name LeftHand
      direction 1.000000 0.000000 0.000000
      length 0.000000
      axis 0.0 0.0 -90.0 xyz
      dof rx ry rz
   end
   begin
      id 27
      name LeftHand_dum1
      direction 1.000000 0.000000 0.000000
      length 3.937000
      axis 0.0 0.0 -90.0 xyz
   end
   begin
      id 28
      name LeftHand_dum2
      direction 0.000000 0.000000 0.000000
      length 0.000000
      axis 0.0 0.0 -90.0 xyz
   end
   begin
      id 29
      name LeftHandThumb1
      direction 0.000000 0.000000 1.000000
      length 3.937000
      axis 0.0 0.0 -90.0 xyz
      dof rx rz ry
   end
   begin
      id 30
      name Head
      direction 0.000000 1.000000 0.000000
      length 4.527550
      axis 0.0 0.0 0.0 xyz
      dof rx ry rz
   end
:hierarchy
   begin
      root RightUpLeg_dum LeftUpLeg_dum Spine_dum
      RightUpLeg_dum RightUpLeg
      LeftUpLeg_dum LeftUpLeg
      Spine_dum Spine
      RightUpLeg RightLeg
      RightLeg RightFoot
      RightFoot RightToeBase
      LeftUpLeg LeftLeg
      LeftLeg LeftFoot
      LeftFoot LeftToeBase
      Spine Spine_dum1 Spine_dum2 Spine_dum3
      Spine_dum1 RightShoulder
      Spine_dum2 LeftShoulder
      Spine_dum3 Head
      RightShoulder RightArm
      RightArm RightForeArm
      RightForeArm RightHand
      RightHand RightHand_dum1 RightHand_dum2
      RightHand_dum2 RightHandThumb1
      LeftShoulder LeftArm
      LeftArm LeftForeArm
      LeftForeArm LeftHand
      LeftHand LeftHand_dum1 LeftHand_dum2
      LeftHand_dum2 LeftHandThumb1
   end

# File created by Blade
# Date/Time:  Thu Jan 22 16:25:48 2015
# Frame Rate: 120.000 fps
#------------------------------------------------------
:FULLY-SPECIFIED
:DEGREES
142
root 3.607427 37.041430 6.594964 -4.927221 4.559327 2.352379
RightUpLeg -9.211283 -0.489169 -5.036707
RightLeg 38.573263 -0.000000 -0.000000
RightFoot -24.304864 -11.879722 18.349926
RightToeBase 2.245868 -0.000000 -0.000000
LeftUpLeg 12.619845 -3.860326 -3.543855
LeftLeg -1.379765 -0.000000 0.000000
LeftFoot -10.535366 8.700295 -14.123528
LeftToeBase 9.559418 -0.000000 -0.000000
Spine 19.106450 -3.570110 -4.773869
RightShoulder -4.456852 -26.528673 -8.058928
RightArm 28.252191 -29.249515 63.411652
RightForeArm -0.564586 -0.000000 70.353500
RightHand 7.150029 0.000000 -2.205808
RightHandThumb1 -24.326973 -0.000000 -32.862282
LeftShoulder -27.637626 35.510275 -2.923382
LeftArm 44.681365 12.226767 -73.748203
LeftForeArm 38.832882 0.000000 39.032241
LeftHand -16.198398 -0.000000 -3.718496
LeftHandThumb1 -26.253704 0.000000 33.147579
Head 2.478894 14.239627 3.296044
143
root 3.571793 37.046779 6.615459 -4.784317 4.756460 2.294310
RightUpLeg -9.411637 -0.295787 -4.884495
RightLeg 37.852526 -0.000000 -0.000000
RightFoot -24.520876 -11.780608 18.286915
RightToeBase 2.172485 -0.000000 -0.000000
LeftUpLeg 12.413280 -3.938416 -3.411944
LeftLeg -1.228423 -0.000000 0.000000
LeftFoot -10.569107 8.573824 -14.094245
LeftToeBase 9.544773 -0.000000 -0.000000
Spine 19.221573 -3.704000 -4.678498
RightShoulder -4.520994 -26.631555 -8.115239
RightArm 28.324947 -29.531387 63.269685
RightForeArm -0.489408 -0.000000 70.885219
RightHand 7.240912 0.000000 -2.286595
RightHandThumb1 -24.326973 -0.000000 -32.862282
LeftShoulder -27.747630 35.685219 -3.083314
LeftArm 44.938796 13.295013 -73.309742
LeftForeArm 38.763825 0.000000 38.757359
LeftHand -16.012237 -0.000000 -3.939409
LeftHandThumb1 -26.253704 0.000000 33.147579
Head 2.800702 14.469054 3.145624
144
root 3.534120 37.052916 6.638116 -4.657214 4.945250 2.217886
RightUpLeg -9.577613 -0.102646 -4.695291
RightLeg 37.004610 -0.000000 -0.000000
RightFoot -24.773734 -11.701182 18.604614
RightToeBase 2.321266 -0.000000 -0.000000
LeftUpLeg 12.231247 -3.988131 -3.249060
LeftLeg -1.093197 -0.000000 0.000000
LeftFoot -10.602936 8.391851 -14.146085
LeftToeBase 9.725354 -0.000000 -0.000000
Spine 19.364101 -3.827784 -4.540107
RightShoulder -4.598470 -26.726278 -8.181599
RightArm 28.405151 -29.759951 63.113513
RightForeArm -0.400557 -0.000000 71.406290
RightHand 7.247786 -0.000000 -2.393161
RightHandThumb1 -24.326973 -0.000000 -32.862282
LeftShoulder -27.807041 35.821162 -3.228224
LeftArm 45.144947 14.322324 -72.858726
LeftForeArm 38.702426 -0.000000 38.558924
LeftHand -15.895832 -0.000000 -4.273705
LeftHandThumb1 -26.253704 0.000000 33.147579
Head 3.073326 14.703344 2.933375
145
root 3.498002 37.055949 6.659316 -4.495515 5.108269 2.194564
RightUpLeg -9.714057 0.398599 -4.641630
RightLeg 36.094937 -0.000000 -0.000000
RightFoot -24.717681 -11.620241 18.128475
RightToeBase 1.880478 -0.000000 -0.000000
LeftUpLeg 12.024741 -4.032055 -3.146520
LeftLeg -0.972673 -0.000000 0.000000
LeftFoot -10.621976 8.268396 -14.148673
LeftToeBase 9.714737 -0.000000 -0.000000
Spine 19.482261 -3.880623 -4.466967
RightShoulder -4.714681 -26.768693 -8.210844
RightArm 28.407321 -29.980807 62.962950
RightForeArm -0.230442 0.000000 71.899501
RightHand 7.226581 -0.000000 -2.487175
RightHandThumb1 -24.326973 -0.000000 -32.862282
LeftShoulder -27.853140 35.902084 -3.287191
LeftArm 45.302324 15.382628 -72.365364
LeftForeArm 38.575819 -0.000000 38.414133
LeftHand -15.676772 0.000000 -4.302093
LeftHandThumb1 -26.253704 0.000000 33.147579
Head 3.340334 14.867856 2.782566
146
root 3.462205 37.057051 6.678552 -4.297752 5.264848 2.184953
RightUpLeg -9.863742 0.870523 -4.560844
RightLeg 35.039659 -0.000000 -0.000000
RightFoot -24.852566 -11.650004 18.089472
RightToeBase 1.649815 -0.000000 -0.000000
LeftUpLeg 11.749705 -4.012703 -3.038215
LeftLeg -0.785615 -0.000000 0.000000
LeftFoot -10.620808 8.046312 -14.119651
LeftToeBase 9.507062 -0.000000 -0.000000
Spine 19.544978 -3.964465 -4.373643
RightShoulder -4.740209 -26.819741 -8.328399
RightArm 28.405570 -30.162354 62.828391
RightForeArm -0.136387 0.000000 72.350499
RightHand 7.258967 0.000000 -2.615885
RightHandThumb1 -24.326973 -0.000000 -32.862282
LeftShoulder -27.935221 36.087037 -3.455722
LeftArm 45.528981 16.305542 -71.839995
LeftForeArm 38.585191 -0.000000 38.351588
LeftHand -15.445677 -0.000000 -4.627702
LeftHandThumb1 -26.253704 0.000000 33.147579
Head 3.621066 15.120186 2.571543
147
root 3.425762 37.056792 6.701127 -4.108748 5.448167 2.195047
RightUpLeg -9.944037 1.346646 -4.539132
RightLeg 33.881256 -0.000000 -0.000000
RightFoot -25.057100 -11.455787 18.186383
RightToeBase 1.782170 -0.000000 -0.000000
LeftUpLeg 11.493483 -4.040186 -2.950628
LeftLeg -0.624874 -0.000000 0.000000
LeftFoot -10.676175 7.833233 -14.236896
LeftToeBase 9.573839 -0.000000 -0.000000
Spine 19.627074 -4.063465 -4.304888
RightShoulder -4.760084 -26.923460 -8.435857
RightArm 28.438446 -30.270878 62.649795
RightForeArm 0.042466 -0.000000 72.783718
RightHand 7.230907 -0.000000 -2.640452
RightHandThumb1 -24.326973 -0.000000 -32.862282
LeftShoulder -28.020661 36.272852 -3.601126
LeftArm 45.770490 17.219236 -71.290487
LeftForeArm 38.348371 -0.000000 38.285798
LeftHand -15.090181 -0.000000 -4.632159
LeftHandThumb1 -26.253704 0.000000 33.147579
Head 3.875733 15.342334 2.378281
148
root 3.386687 37.055512 6.727515 -3.928243 5.617259 2.217038
RightUpLeg -9.979495 1.846435 -4.538899
RightLeg 32.635765 -0.000000 -0.000000
RightFoot -25.039309 -11.414957 17.954617
RightToeBase 1.683024 -0.000000 -0.000000
LeftUpLeg 11.286219 -4.113751 -2.889306
LeftLeg -0.519342 -0.000000 0.000000
LeftFoot -10.701389 7.713605 -14.254898
LeftToeBase 9.561428 -0.000000 -0.000000
Spine 19.716441 -4.085822 -4.238328
RightShoulder -4.796252 -26.927966 -8.527270
RightArm 28.345615 -30.381834 62.520566
RightForeArm 0.226455 -0.000000 73.176775
RightHand 7.221956 -0.000000 -2.782799
RightHandThumb1 -24.326973 -0.000000 -32.862282
LeftShoulder -27.987926 36.368470 -3.614678
LeftArm 45.865666 18.090349 -70.818017
LeftForeArm 38.321244 -0.000000 38.288614
LeftHand -14.840725 0.000000 -4.535836
LeftHandThumb1 -26.253704 0.000000 33.147579
Head 4.113976 15.498942 2.230889
